<?xml version="1.0" encoding="us-ascii" standalone="no"?><svg xmlns="http://www.w3.org/2000/svg" xmlns:xlink="http://www.w3.org/1999/xlink" contentStyleType="text/css" height="349px" preserveAspectRatio="none" style="width:327px;height:349px;background:#FFFFFF;" version="1.1" viewBox="0 0 327 349" width="327px" zoomAndPan="magnify"><defs/><g><rect fill="#F1F1F1" height="40" rx="12.5" ry="12.5" style="stroke:#181818;stroke-width:0.5;" width="95" x="61.5" y="7"/><text fill="#000000" font-family="sans-serif" font-size="14" lengthAdjust="spacing" textLength="85" x="66.5" y="31.8467">Undeployed</text><rect fill="#F1F1F1" height="40" rx="12.5" ry="12.5" style="stroke:#181818;stroke-width:0.5;" width="83" x="236.5" y="7"/><text fill="#000000" font-family="sans-serif" font-size="14" lengthAdjust="spacing" textLength="73" x="241.5" y="31.8467">Deploying</text><path d="M196.5,124 L273.5,124 A12.5,12.5 0 0 1 286,136.5 L286,150.2969 L184,150.2969 L184,136.5 A12.5,12.5 0 0 1 196.5,124 " fill="#F1F1F1" style="stroke:#F1F1F1;stroke-width:1.0;"/><rect fill="none" height="219.2969" rx="12.5" ry="12.5" style="stroke:#181818;stroke-width:0.5;" width="102" x="184" y="124"/><line style="stroke:#181818;stroke-width:0.5;" x1="184" x2="286" y1="150.2969" y2="150.2969"/><text fill="#000000" font-family="sans-serif" font-size="14" lengthAdjust="spacing" textLength="69" x="200.5" y="141.9951">Deployed</text><rect fill="#F1F1F1" height="40" rx="12.5" ry="12.5" style="stroke:#181818;stroke-width:0.5;" width="65" x="204.5" y="293.2969"/><text fill="#000000" font-family="sans-serif" font-size="14" lengthAdjust="spacing" textLength="55" x="209.5" y="318.1436">Healthy</text><rect fill="#F1F1F1" height="40" rx="12.5" ry="12.5" style="stroke:#181818;stroke-width:0.5;" width="82" x="196" y="217.2969"/><text fill="#000000" font-family="sans-serif" font-size="14" lengthAdjust="spacing" textLength="72" x="201" y="242.1436">Unhealthy</text><ellipse cx="237" cy="171.2969" fill="#222222" rx="10" ry="10" style="stroke:#222222;stroke-width:1.0;"/><!--link *start*deployed to unhealthy--><g id="link_*start*deployed_unhealthy"><path d="M237,181.4669 C237,190.7299 237,199.3179 237,211.1189 " fill="none" id="*start*deployed-to-unhealthy" style="stroke:#181818;stroke-width:1.0;"/><polygon fill="#181818" points="237,217.1189,241,208.1189,237,212.1189,233,208.1189,237,217.1189" style="stroke:#181818;stroke-width:1.0;"/></g><!--link unhealthy to healthy--><g id="link_unhealthy_healthy"><path d="M231.0118,257.3537 C230.002,268.3166 229.4537,276.0769 230.4518,287.0719 " fill="none" id="unhealthy-to-healthy" style="stroke:#181818;stroke-width:1.0;"/><polygon fill="#181818" points="230.9942,293.0474,234.1642,283.7226,230.5422,288.0678,226.1969,284.4459,230.9942,293.0474" style="stroke:#181818;stroke-width:1.0;"/></g><!--reverse link unhealthy to healthy--><g id="link_unhealthy_healthy"><path d="M243.5385,263.3284 C244.5483,274.2913 244.0039,282.0524 243.0058,293.0474 " fill="none" id="unhealthy-backto-healthy" style="stroke:#181818;stroke-width:1.0;"/><polygon fill="#181818" points="242.9882,257.3537,239.8306,266.6826,243.4468,262.3326,247.7968,265.9488,242.9882,257.3537" style="stroke:#181818;stroke-width:1.0;"/></g><ellipse cx="16" cy="27" fill="#222222" rx="10" ry="10" style="stroke:#222222;stroke-width:1.0;"/><ellipse cx="95" cy="233.5" fill="none" rx="11" ry="11" style="stroke:#222222;stroke-width:1.0;"/><ellipse cx="95" cy="233.5" fill="#222222" rx="6" ry="6" style="stroke:#222222;stroke-width:1.0;"/><!--link *start* to undeployed--><g id="link_*start*_undeployed"><path d="M26.1719,27 C37.9274,27 43.683,27 55.4385,27 " fill="none" id="*start*-to-undeployed" style="stroke:#181818;stroke-width:1.0;"/><polygon fill="#181818" points="61.4385,27,52.4385,23,56.4385,27,52.4385,31,61.4385,27" style="stroke:#181818;stroke-width:1.0;"/></g><!--link undeployed to *end*--><g id="link_undeployed_*end*"><path d="M100.6857,47.16 C97.2638,56.054 93.706,66.878 92,77 C82.8453,131.317 89.3795,191.8644 92.7394,216.6364 " fill="none" id="undeployed-to-*end*" style="stroke:#181818;stroke-width:1.0;"/><polygon fill="#181818" points="93.5458,222.582,96.2999,213.126,92.8738,217.6274,88.3725,214.2013,93.5458,222.582" style="stroke:#181818;stroke-width:1.0;"/><text fill="#000000" font-family="sans-serif" font-size="13" lengthAdjust="spacing" textLength="40" x="93" y="90.0669">delete</text></g><!--link undeployed to deploying--><g id="link_undeployed_deploying"><path d="M156.526,27 C181.616,27 206.125,27 230.29,27 " fill="none" id="undeployed-to-deploying" style="stroke:#181818;stroke-width:1.0;"/><polygon fill="#181818" points="236.29,27,227.29,23,231.29,27,227.29,31,236.29,27" style="stroke:#181818;stroke-width:1.0;"/><text fill="#000000" font-family="sans-serif" font-size="13" lengthAdjust="spacing" textLength="43" x="175" y="20.0669">deploy</text></g><!--reverse link undeployed to deploying--><g id="link_undeployed_deploying"><path d="M162.595,44.4566 C180.219,48.5696 194.545,49.775 213,47 C220.706,45.841 228.759,43.951 236.468,41.783 " fill="none" id="undeployed-backto-deploying" style="stroke:#181818;stroke-width:1.0;"/><polygon fill="#181818" points="156.752,43.093,164.6074,49.0337,161.6212,44.2293,166.4256,41.2431,156.752,43.093" style="stroke:#181818;stroke-width:1.0;"/><text fill="#000000" font-family="sans-serif" font-size="13" lengthAdjust="spacing" textLength="31" x="181" y="43.0669">error</text></g><!--link deploying to deployed--><g id="link_deploying_deployed"><path d="M273.955,47.239 C270.129,65.434 265.2956,88.4184 259.0776,117.9894 " fill="none" id="deploying-to-deployed" style="stroke:#181818;stroke-width:1.0;"/><polygon fill="#181818" points="257.843,123.861,263.6094,115.8767,258.8719,118.968,255.7806,114.2305,257.843,123.861" style="stroke:#181818;stroke-width:1.0;"/><text fill="#000000" font-family="sans-serif" font-size="13" lengthAdjust="spacing" textLength="51" x="268" y="90.0669">success</text></g><!--link deployed to undeployed--><g id="link_deployed_undeployed"><path d="M183.856,149.492 C160.693,111.898 138.4594,75.8122 124.0014,52.3472 " fill="none" id="deployed-to-undeployed" style="stroke:#181818;stroke-width:1.0;"/><polygon fill="#181818" points="120.854,47.239,122.1697,56.9996,123.4769,51.4958,128.9806,52.803,120.854,47.239" style="stroke:#181818;stroke-width:1.0;"/><text fill="#000000" font-family="sans-serif" font-size="13" lengthAdjust="spacing" textLength="59" x="147" y="90.0669">undeploy</text></g><!--SRC=[LOyx3iCW44HxJh5o6OaBf4YL8XTm5QMmpCOW4K1y55bHxXvC37Yx6TxCY9LA8E3BnHK4Xjah5vKrZ8KuHOHXD0ATjYkA0QO0gTaQk1Qlp5Aug8xYlLsxy640U-26auvoBLp-TOUZaGUSJ0_SJm_WmhuDlv3tfXljh97aIElBM9dpQf6na7Paby0psMBdV8R6Y8JLQhk_n3RD-XFN-AJxEONUMtyCqQcI2McUCGH6_a9Mgla1]--></g></svg>