<?xml version="1.0" encoding="us-ascii" standalone="no"?><svg xmlns="http://www.w3.org/2000/svg" xmlns:xlink="http://www.w3.org/1999/xlink" contentStyleType="text/css" height="636px" preserveAspectRatio="none" style="width:531px;height:636px;background:#FFFFFF;" version="1.1" viewBox="0 0 531 636" width="531px" zoomAndPan="magnify"><defs/><g><rect fill="#F1F1F1" height="40" rx="12.5" ry="12.5" style="stroke:#181818;stroke-width:0.5;" width="50" x="61" y="298.5"/><text fill="#000000" font-family="sans-serif" font-size="14" lengthAdjust="spacing" textLength="40" x="66" y="323.3467">Down</text><path d="M229,7 L505.0635,7 A12.5,12.5 0 0 1 517.5635,19.5 L517.5635,33.2969 L216.5,33.2969 L216.5,19.5 A12.5,12.5 0 0 1 229,7 " fill="#F1F1F1" style="stroke:#F1F1F1;stroke-width:1.0;"/><rect fill="none" height="623.2969" rx="12.5" ry="12.5" style="stroke:#181818;stroke-width:0.5;" width="301.0635" x="216.5" y="7"/><line style="stroke:#181818;stroke-width:0.5;" x1="216.5" x2="517.5635" y1="33.2969" y2="33.2969"/><text fill="#000000" font-family="sans-serif" font-size="14" lengthAdjust="spacing" textLength="19" x="357.5318" y="24.9951">Up</text><rect fill="#F1F1F1" height="40" rx="12.5" ry="12.5" style="stroke:#181818;stroke-width:0.5;" width="57" x="295.0635" y="580.2969"/><text fill="#000000" font-family="sans-serif" font-size="14" lengthAdjust="spacing" textLength="47" x="300.0635" y="605.1436">Failure</text><rect fill="#F1F1F1" height="40" rx="12.5" ry="12.5" style="stroke:#181818;stroke-width:0.5;" width="75" x="317.0635" y="45.2969"/><text fill="#000000" font-family="sans-serif" font-size="14" lengthAdjust="spacing" textLength="65" x="322.0635" y="70.1436">Available</text><path d="M344.5635,138.2969 L496.0635,138.2969 A12.5,12.5 0 0 1 508.5635,150.7969 L508.5635,164.5938 L332.0635,164.5938 L332.0635,150.7969 A12.5,12.5 0 0 1 344.5635,138.2969 " fill="#F1F1F1" style="stroke:#F1F1F1;stroke-width:1.0;"/><rect fill="none" height="389.2969" rx="12.5" ry="12.5" style="stroke:#181818;stroke-width:0.5;" width="176.5" x="332.0635" y="138.2969"/><line style="stroke:#181818;stroke-width:0.5;" x1="332.0635" x2="508.5635" y1="164.5938" y2="164.5938"/><text fill="#000000" font-family="sans-serif" font-size="14" lengthAdjust="spacing" textLength="34" x="403.3135" y="156.292">Used</text><rect fill="#F1F1F1" height="40" rx="12.5" ry="12.5" style="stroke:#181818;stroke-width:0.5;" width="83" x="401.0635" y="232.5938"/><text fill="#000000" font-family="sans-serif" font-size="14" lengthAdjust="spacing" textLength="73" x="406.0635" y="257.4404">Deploying</text><rect fill="#F1F1F1" height="40" rx="12.5" ry="12.5" style="stroke:#181818;stroke-width:0.5;" width="99" x="344.0635" y="418.5938"/><text fill="#000000" font-family="sans-serif" font-size="14" lengthAdjust="spacing" textLength="89" x="349.0635" y="443.4404">Undeploying</text><rect fill="#F1F1F1" height="40" rx="12.5" ry="12.5" style="stroke:#181818;stroke-width:0.5;" width="70" x="359.5635" y="325.5938"/><text fill="#000000" font-family="sans-serif" font-size="14" lengthAdjust="spacing" textLength="60" x="364.5635" y="350.4404">Member</text><ellipse cx="442.5635" cy="185.5938" fill="#222222" rx="10" ry="10" style="stroke:#222222;stroke-width:1.0;"/><ellipse cx="447.5635" cy="506.5938" fill="none" rx="11" ry="11" style="stroke:#222222;stroke-width:1.0;"/><ellipse cx="447.5635" cy="506.5938" fill="#222222" rx="6" ry="6" style="stroke:#222222;stroke-width:1.0;"/><!--link *start*used to deploying--><g id="link_*start*used_deploying"><path d="M442.5635,195.6318 C442.5635,205.1198 442.5635,214.3207 442.5635,226.4867 " fill="none" id="*start*used-to-deploying" style="stroke:#181818;stroke-width:1.0;"/><polygon fill="#181818" points="442.5635,232.4867,446.5635,223.4867,442.5635,227.4867,438.5635,223.4867,442.5635,232.4867" style="stroke:#181818;stroke-width:1.0;"/></g><!--link deploying to member--><g id="link_deploying_member"><path d="M420.1182,272.6748 C415.0044,278.0078 410.0558,284.1278 406.5635,290.5938 C400.7677,301.3257 398.6252,308.7601 397.0749,319.5141 " fill="none" id="deploying-to-member" style="stroke:#181818;stroke-width:1.0;"/><polygon fill="#181818" points="396.2188,325.4528,401.462,317.1156,396.9322,320.5039,393.5439,315.9741,396.2188,325.4528" style="stroke:#181818;stroke-width:1.0;"/><text fill="#000000" font-family="sans-serif" font-size="13" lengthAdjust="spacing" textLength="51" x="407.5635" y="303.6606">success</text></g><!--link member to undeploying--><g id="link_member_undeploying"><path d="M393.3284,365.7898 C393.0134,371.5148 392.7198,377.8058 392.5635,383.5938 C392.2521,395.1228 392.2897,402.0415 392.601,412.3508 " fill="none" id="member-to-undeploying" style="stroke:#181818;stroke-width:1.0;"/><polygon fill="#181818" points="392.7821,418.3481,396.5086,409.2314,392.6312,413.3503,388.5123,409.4729,392.7821,418.3481" style="stroke:#181818;stroke-width:1.0;"/><text fill="#000000" font-family="sans-serif" font-size="13" lengthAdjust="spacing" textLength="57" x="393.5635" y="396.6606">unassign</text></g><!--link deploying to *end*used--><g id="link_deploying_*end*used"><path d="M453.2005,272.6318 C455.8095,278.2458 458.2345,284.5168 459.5635,290.5938 C461.1785,297.9748 459.7635,300.0408 459.5635,307.5938 C457.7855,374.7758 456.1915,391.5478 451.5635,458.5938 C450.6835,471.3387 449.9401,480.0288 449.0651,489.5411 " fill="none" id="deploying-to-*end*used" style="stroke:#181818;stroke-width:1.0;"/><polygon fill="#181818" points="448.5155,495.5159,453.3231,486.9201,448.9735,490.5369,445.3567,486.1873,448.5155,495.5159" style="stroke:#181818;stroke-width:1.0;"/><text fill="#000000" font-family="sans-serif" font-size="13" lengthAdjust="spacing" textLength="40" x="458.5635" y="396.6606">failure</text></g><!--link undeploying to *end*used--><g id="link_undeploying_*end*used"><path d="M409.1825,458.6837 C419.7732,471.6278 429.4239,483.4231 437.2655,493.0073 " fill="none" id="undeploying-to-*end*used" style="stroke:#181818;stroke-width:1.0;"/><polygon fill="#181818" points="441.0649,497.6511,438.4616,488.1525,437.8987,493.7813,432.2699,493.2184,441.0649,497.6511" style="stroke:#181818;stroke-width:1.0;"/></g><!--link available to used--><g id="link_available_used"><path d="M353.6245,85.4039 C353.4385,95.7869 353.7305,108.8149 355.5635,120.2969 C356.5025,126.1769 356.4129,126.2316 357.5829,132.2086 " fill="none" id="available-to-used" style="stroke:#181818;stroke-width:1.0;"/><polygon fill="#181818" points="358.7355,138.0969,360.9321,128.4961,357.775,133.19,353.0811,130.0329,358.7355,138.0969" style="stroke:#181818;stroke-width:1.0;"/><text fill="#000000" font-family="sans-serif" font-size="13" lengthAdjust="spacing" textLength="41" x="356.5635" y="116.3638">assign</text></g><!--link used to available--><g id="link_used_available"><path d="M412.8615,138.1729 C409.0625,126.0599 404.3565,114.3219 398.5635,103.2969 C395.0355,96.5819 394.2025,94.5852 388.4785,89.4832 " fill="none" id="used-to-available" style="stroke:#181818;stroke-width:1.0;"/><polygon fill="#181818" points="383.9995,85.4909,388.0565,94.4653,387.732,88.8178,393.3796,88.4933,383.9995,85.4909" style="stroke:#181818;stroke-width:1.0;"/><text fill="#000000" font-family="sans-serif" font-size="13" lengthAdjust="spacing" textLength="37" x="407.5635" y="116.3638">ready</text></g><!--link available to failure--><g id="link_available_failure"><path d="M329.8663,85.4169 C315.0936,98.4949 297.6642,117.2349 289.5635,138.2969 C227.5,299.6619 251.7345,358.5969 289.5635,527.2969 C293.8283,546.3159 300.7359,561.0148 308.7528,575.065 " fill="none" id="available-to-failure" style="stroke:#181818;stroke-width:1.0;"/><polygon fill="#181818" points="311.7263,580.2764,310.7402,570.477,309.2484,575.9336,303.7918,574.4417,311.7263,580.2764" style="stroke:#181818;stroke-width:1.0;"/><text fill="#000000" font-family="sans-serif" font-size="13" lengthAdjust="spacing" textLength="31" x="290.5635" y="337.3638">error</text></g><!--link used to failure--><g id="link_used_failure"><path d="M349.8131,527.4488 C342.063,548.6618 337.3396,561.5902 332.6113,574.5321 " fill="none" id="used-to-failure" style="stroke:#181818;stroke-width:1.0;"/><polygon fill="#181818" points="330.5523,580.1678,337.3979,573.0869,332.2681,575.4714,329.8837,570.3416,330.5523,580.1678" style="stroke:#181818;stroke-width:1.0;"/><text fill="#000000" font-family="sans-serif" font-size="13" lengthAdjust="spacing" textLength="31" x="343.5635" y="558.3638">error</text></g><ellipse cx="16" cy="318.5" fill="#222222" rx="10" ry="10" style="stroke:#222222;stroke-width:1.0;"/><!--link *start* to down--><g id="link_*start*_down"><path d="M26.1172,318.5 C37.6571,318.5 43.197,318.5 54.7369,318.5 " fill="none" id="*start*-to-down" style="stroke:#181818;stroke-width:1.0;"/><polygon fill="#181818" points="60.7369,318.5,51.7369,314.5,55.7369,318.5,51.7369,322.5,60.7369,318.5" style="stroke:#181818;stroke-width:1.0;"/></g><!--link down to up--><g id="link_down_up"><path d="M111.257,330.501 C119.37,333.768 128.521,336.857 137.25,338.5 C162.629,343.277 183.8085,344.61 210.2635,343.582 " fill="none" id="down-to-up" style="stroke:#181818;stroke-width:1.0;"/><polygon fill="#181818" points="216.259,343.349,207.1105,339.7015,211.2628,343.5431,207.4211,347.6954,216.259,343.349" style="stroke:#181818;stroke-width:1.0;"/><text fill="#000000" font-family="sans-serif" font-size="13" lengthAdjust="spacing" textLength="51" x="138.25" y="334.5669">connect</text></g><!--reverse link down to up--><g id="link_down_up"><path d="M117.432,318.5 C142.088,318.5 175.638,318.5 216.331,318.5 " fill="none" id="down-backto-up" style="stroke:#181818;stroke-width:1.0;"/><polygon fill="#181818" points="111.432,318.5,120.432,322.5,116.432,318.5,120.432,314.5,111.432,318.5" style="stroke:#181818;stroke-width:1.0;"/><text fill="#000000" font-family="sans-serif" font-size="13" lengthAdjust="spacing" textLength="69" x="129.25" y="311.5669">disconnect</text></g><!--SRC=[RP6xQWCn44LxVSNWCh0_e28GCEbIRXLIoD9uBTYLX1uEY_6_My_LshWHC_SUZIwZYnG8k1Y_Wa37hJHUQaM8yymZ78xwNns0EH2nQE9eiXGCt0X05R-Pd8F5x9nBtSslQrJOQIusQrq7HeUY38r57hjPHpIpNgMQIexMxP5HYISegBVO3oudj9bOSaco-_ln1yFm-J9wwx9NUA3W0kVeN4QgcFpTYn4AYZad9_LcK7gCxXO4JrSh4VKxkHEIaravNNoAbtuW7LsAFq21QwMGUnAROSPpGwCZf6icsNPUugOjKwWfSvVa3b6moCJwUg_cfe3MQjilLXsgyG00]--></g></svg>